<svg id="Layer_1" data-name="Layer 1" xmlns="http://www.w3.org/2000/svg" viewBox="0 0 254.89 69.85"><defs><style>.cls-1{fill:#162f48;}.cls-2,.cls-8{fill:#4796d0;}.cls-3{fill:#98c455;}.cls-10,.cls-3,.cls-4,.cls-5,.cls-6,.cls-7,.cls-8,.cls-9{fill-rule:evenodd;}.cls-4{fill:#ea9a40;}.cls-5{fill:#db427b;}.cls-6{fill:#912c62;}.cls-7{fill:#3a74b6;}.cls-9{fill:#49a49c;}.cls-10{fill:#e4bd46;}</style></defs><path class="cls-1" d="M226.28,89.6a3.59,3.59,0,0,1,2.29-.73,3.2,3.2,0,0,1,2.52,1,3.28,3.28,0,0,1,.76,2.29v3.81c0,.28-.13.42-.42.41h-1.16c-.29,0-.43-.13-.42-.41V92.15a1.3,1.3,0,0,0-.37-.91,1.25,1.25,0,0,0-.92-.37,1.29,1.29,0,0,0-.94.38,1.13,1.13,0,0,0-.34.81v3.87a.35.35,0,0,1-.41.41H225.7a.35.35,0,0,1-.41-.41V92.15a1.3,1.3,0,0,0-2.17-.94,1.12,1.12,0,0,0-.39.85v3.87a.36.36,0,0,1-.42.41h-1.16c-.29,0-.44-.13-.43-.41V89.4c0-.29.14-.42.43-.41h1.09c.2,0,.31.08.32.26a2.82,2.82,0,0,1,1.47-.38A3.51,3.51,0,0,1,226.28,89.6Zm8.69-.34a2.84,2.84,0,0,1,1.5-.39,3.15,3.15,0,0,1,2.48,1,3.28,3.28,0,0,1,.76,2.29v3.81c0,.28-.13.42-.42.41h-1.16c-.29,0-.43-.13-.42-.41V92.15a1.23,1.23,0,0,0-.37-.91,1.25,1.25,0,0,0-.91-.37,1.21,1.21,0,0,0-.88.34,1.09,1.09,0,0,0-.4.85v3.87a.35.35,0,0,1-.41.41h-1.17c-.29,0-.43-.13-.42-.41V89.4c0-.29.13-.42.42-.41h1.06C234.85,89,235,89.07,235,89.26Zm10.38,3.47L247.41,96l.06.17q0,.21-.27.21h-1.62a.52.52,0,0,1-.52-.32l-.89-1.71,0,0,0,0L243.19,96a.52.52,0,0,1-.52.32H241c-.17,0-.26-.07-.26-.21l.06-.17,2.06-3.23,0-.07,0-.07-2-3.23-.06-.16c0-.14.09-.21.28-.21h1.57a.52.52,0,0,1,.52.32l.88,1.68,0,0,.06,0,.87-1.68a.53.53,0,0,1,.53-.32h1.57c.18,0,.27.07.27.22l0,.15-2,3.23,0,.07Zm4.27,2a.76.76,0,0,1,.65.35.88.88,0,0,1,.18.54.82.82,0,0,1-.84.83.83.83,0,0,1-.64-.26.75.75,0,0,1-.24-.57.89.89,0,0,1,.27-.64A.84.84,0,0,1,249.62,94.68Z" transform="translate(-18.03 -31.61)"/><path class="cls-2" d="M251.93,95.93V89.39c0-.29.13-.43.43-.42h1.16q.42,0,.42.42v6.54a.36.36,0,0,1-.42.41h-1.16C252.06,96.35,251.92,96.21,251.93,95.93Zm1-9.57a1,1,0,0,1,.7.3,1,1,0,0,1,.3.71,1,1,0,1,1-1.72-.71A1,1,0,0,1,253,86.36Zm6,2.51a3.79,3.79,0,0,1,3.75,3.78,3.8,3.8,0,1,1-7.6,0A3.77,3.77,0,0,1,259,88.87Zm-.05,2a1.78,1.78,0,1,0,1.27.52A1.71,1.71,0,0,0,258.9,90.87Z" transform="translate(-18.03 -31.61)"/><path class="cls-3" d="M206,82.17a10,10,0,0,1,2.56,0c.21,0,.32.16.27.36-.1.37-.2.74-.31,1.11-.05.19-.13.24-.34.21a8,8,0,0,0-1.83,0,.26.26,0,0,1-.29-.22c-.09-.37-.19-.74-.29-1.11C205.7,82.32,205.75,82.2,206,82.17Z" transform="translate(-18.03 -31.61)"/><path class="cls-4" d="M211,82.81a9.38,9.38,0,0,1,2.22,1.28c.16.15.2.3.06.44l-.82.81c-.14.14-.24.14-.41,0a8,8,0,0,0-1.58-.92.25.25,0,0,1-.14-.34l.3-1.1C210.64,82.79,210.74,82.72,211,82.81Z" transform="translate(-18.03 -31.61)"/><path class="cls-5" d="M215,85.85a9.8,9.8,0,0,1,1.27,2.21c.07.22,0,.36-.17.42l-1.11.29c-.19,0-.28,0-.36-.19a7.8,7.8,0,0,0-.91-1.58.27.27,0,0,1,0-.37l.82-.8C214.68,85.68,214.81,85.67,215,85.85Z" transform="translate(-18.03 -31.61)"/><path class="cls-6" d="M216.88,90.47a9.54,9.54,0,0,1,0,2.56c0,.22-.16.33-.36.27l-1.11-.3c-.18,0-.24-.14-.21-.34a8,8,0,0,0,0-1.83.25.25,0,0,1,.22-.29l1.11-.29C216.74,90.2,216.85,90.25,216.88,90.47Z" transform="translate(-18.03 -31.61)"/><path class="cls-7" d="M216.24,95.45A9.12,9.12,0,0,1,215,97.66c-.15.17-.3.21-.44.06l-.81-.82c-.14-.13-.14-.23,0-.4a8,8,0,0,0,.92-1.58.25.25,0,0,1,.34-.14l1.1.3C216.26,95.14,216.33,95.24,216.24,95.45Z" transform="translate(-18.03 -31.61)"/><path class="cls-8" d="M213.2,99.44a9.63,9.63,0,0,1-2.21,1.28c-.22.06-.36,0-.42-.17-.09-.38-.19-.75-.29-1.12-.05-.18,0-.27.19-.36a7.67,7.67,0,0,0,1.59-.91.25.25,0,0,1,.36,0l.8.81C213.37,99.18,213.38,99.3,213.2,99.44Z" transform="translate(-18.03 -31.61)"/><path class="cls-9" d="M208.58,101.38a9.53,9.53,0,0,1-2.56,0c-.22-.05-.33-.15-.27-.35l.3-1.11c0-.19.14-.24.34-.22a8,8,0,0,0,1.83,0,.25.25,0,0,1,.29.22c.1.37.2.74.29,1.11C208.86,101.23,208.8,101.35,208.58,101.38Z" transform="translate(-18.03 -31.61)"/><path class="cls-3" d="M203.6,100.74a9.46,9.46,0,0,1-2.21-1.28c-.17-.15-.21-.3-.06-.44l.82-.81a.25.25,0,0,1,.4,0,8.26,8.26,0,0,0,1.58.92.24.24,0,0,1,.14.33l-.3,1.11C203.92,100.75,203.81,100.83,203.6,100.74Z" transform="translate(-18.03 -31.61)"/><path class="cls-10" d="M199.61,97.7a9.3,9.3,0,0,1-1.27-2.22c-.07-.21,0-.36.17-.41l1.11-.29c.19,0,.27,0,.36.19a8.08,8.08,0,0,0,.91,1.58.25.25,0,0,1,0,.36l-.81.81C199.88,97.87,199.75,97.88,199.61,97.7Z" transform="translate(-18.03 -31.61)"/><path class="cls-4" d="M197.67,93.07a9.46,9.46,0,0,1,0-2.55c0-.22.15-.33.35-.28l1.11.31c.19,0,.24.13.22.34a8,8,0,0,0,0,1.83c0,.17-.09.25-.23.29L198,93.3C197.82,93.35,197.7,93.3,197.67,93.07Z" transform="translate(-18.03 -31.61)"/><path class="cls-5" d="M198.31,88.1a9.73,9.73,0,0,1,1.28-2.22c.16-.16.3-.2.45,0l.81.81c.13.14.14.24,0,.41a7.47,7.47,0,0,0-.91,1.58.26.26,0,0,1-.34.14l-1.11-.3C198.3,88.41,198.22,88.31,198.31,88.1Z" transform="translate(-18.03 -31.61)"/><path class="cls-6" d="M201.35,84.11a9.69,9.69,0,0,1,2.22-1.28c.21-.06.36,0,.41.17.1.37.2.74.29,1.12,0,.18,0,.27-.19.35a8.62,8.62,0,0,0-1.58.91.24.24,0,0,1-.36,0l-.81-.82C201.18,84.37,201.17,84.24,201.35,84.11Z" transform="translate(-18.03 -31.61)"/><path class="cls-8" d="M207.28,84.87a6.91,6.91,0,1,0,3.15,13c.71-.37.4-.85-.17-.84a6.17,6.17,0,0,1-5-2.41l-.11,0a3.36,3.36,0,0,1-.71.08,3.13,3.13,0,0,1-2.24-.93h0a3.12,3.12,0,0,1-.93-2.24,3.17,3.17,0,0,1,3.17-3.17h.2a2.81,2.81,0,0,1,.68-1.23,2.62,2.62,0,0,1,3.88,0,3,3,0,0,1,.62,1,3.13,3.13,0,0,1,.43,0,3.09,3.09,0,0,1,2.17.9h0a3.05,3.05,0,0,1,.89,2.16,3.21,3.21,0,0,1-.94,2.41,3,3,0,0,1-1.53.78,3.59,3.59,0,0,1-1.74-.14,4.25,4.25,0,0,1-2.43-2.26.63.63,0,0,1,.31-.86.65.65,0,0,1,.87.3,2.93,2.93,0,0,0,1.67,1.58,2.17,2.17,0,0,0,1.09.1,1.68,1.68,0,0,0,.86-.43,2,2,0,0,0,.54-1.48,1.79,1.79,0,0,0-.51-1.24l-.05,0a1.59,1.59,0,0,0-1.2-.47,1.69,1.69,0,0,0-.33,0h0a.65.65,0,0,1-1.22-.31,1.66,1.66,0,0,0-.43-1.13,1.35,1.35,0,0,0-1-.45,1.32,1.32,0,0,0-1,.45,1.59,1.59,0,0,0-.43,1.07v.09a.65.65,0,0,1-.66.62c-.22,0-.4-.14-.74-.14a1.86,1.86,0,0,0-1.29.52,1.81,1.81,0,0,0-.58,1.35,1.85,1.85,0,0,0,.55,1.32h0a1.83,1.83,0,0,0,1.32.55,1.86,1.86,0,0,0,.42,0,2,2,0,0,0,.35-.11l.05,0a.65.65,0,0,1,.86.31l0,.1A5,5,0,0,0,207.55,95a4.92,4.92,0,0,0,2.7.76,3.93,3.93,0,0,0,3.93-4A6.9,6.9,0,0,0,207.28,84.87Z" transform="translate(-18.03 -31.61)"/><path class="cls-1" d="M188,90.49h0c0,.14-.08.2-.23.19h-.57a.19.19,0,0,1-.22-.22V85.35a.19.19,0,0,1,.22-.22h.63a.2.2,0,0,1,.23.22v1.56a2,2,0,0,1,2.42.35,2,2,0,0,1-1.44,3.48A2.37,2.37,0,0,1,188,90.49Zm1-2.77a.9.9,0,0,0-.68.28,1,1,0,0,0,0,1.4.9.9,0,0,0,.69.28,1,1,0,1,0,0-2Z" transform="translate(-18.03 -31.61)"/><path class="cls-1" d="M192.62,90.28l-1.16-3.34a.31.31,0,0,1,0-.08c0-.1.06-.14.18-.14h.73a.24.24,0,0,1,.25.19l.57,2s0,0,0,0,0,0,0,0l.57-2a.24.24,0,0,1,.25-.19h.71c.12,0,.18,0,.18.14a.25.25,0,0,1,0,.08l-1.78,5.2a.22.22,0,0,1-.25.18h-.72c-.12,0-.18,0-.18-.13a.51.51,0,0,1,0-.09Z" transform="translate(-18.03 -31.61)"/><path class="cls-1" d="M97.68,35.73v7.63a1.91,1.91,0,0,1-1.91,1.91H79.3a1.9,1.9,0,0,0-1.91,1.91V74.09A1.91,1.91,0,0,1,75.48,76H67.75a1.84,1.84,0,0,1-1.91-1.91V45.27A11.55,11.55,0,0,1,77.39,33.72H95.77a2,2,0,0,1,1.91,2m16.67-2.41h-7.74a1.9,1.9,0,0,0-1.9,1.91V73.59a1.9,1.9,0,0,0,1.9,1.91h7.64a1.9,1.9,0,0,0,1.9-1.91V35.23a1.76,1.76,0,0,0-1.8-1.91m49.31,0H125.29a1.9,1.9,0,0,0-1.9,1.91V43a1.9,1.9,0,0,0,1.9,1.91h11.45a1.9,1.9,0,0,1,1.91,1.91V73.69a1.9,1.9,0,0,0,1.91,1.91h7.63a1.9,1.9,0,0,0,1.91-1.91v-27A1.9,1.9,0,0,1,152,44.77h11.65a1.92,1.92,0,0,0,1.91-1.91V35.23a1.85,1.85,0,0,0-1.91-1.91m-105.35,0H19.94A1.91,1.91,0,0,0,18,35.23V43a1.91,1.91,0,0,0,1.91,1.91H31.39a1.9,1.9,0,0,1,1.91,1.91V73.69a1.9,1.9,0,0,0,1.91,1.91h7.63a1.9,1.9,0,0,0,1.91-1.91v-27a1.9,1.9,0,0,1,1.91-1.91H58.31a2.07,2.07,0,0,0,1.91-1.91V35.23a1.91,1.91,0,0,0-1.91-1.91M220.8,35.23V73.59a1.91,1.91,0,0,0,1.91,1.91h7.63a1.9,1.9,0,0,0,1.91-1.91V46.68a1.9,1.9,0,0,1,1.91-1.91h15.57a1.9,1.9,0,0,1,1.9,1.91V73.59a1.91,1.91,0,0,0,1.91,1.91h7.63a1.9,1.9,0,0,0,1.91-1.91V44.77a11.55,11.55,0,0,0-11.55-11.55H222.61a2,2,0,0,0-1.81,2m-28.92,8.53a10.85,10.85,0,1,0,10.84,10.85,10.93,10.93,0,0,0-10.84-10.85m0-12.15a23,23,0,1,1-23,23,23,23,0,0,1,23-23M268,34.83h1v-.41H266.4v.51h1v2.91h.6Zm3.32,3,1-2.71v2.71h.6V34.42h-.8l-1,2.72-.91-2.72h-.9v3.42h.6V35.23l1,2.71Z" transform="translate(-18.03 -31.61)"/><path class="cls-2" d="M26.61,98.75V84.93c0-.38.18-.57.57-.56h4.34a7.47,7.47,0,1,1,0,14.94H27.18C26.79,99.32,26.6,99.13,26.61,98.75Zm2.85-11.4v9a.12.12,0,0,0,.13.13h1.93a4.75,4.75,0,0,0,3.36-8,4.46,4.46,0,0,0-3.25-1.24h-2A.12.12,0,0,0,29.46,87.35Z" transform="translate(-18.03 -31.61)"/><path class="cls-2" d="M46.11,96.58l-.93,2.28a.65.65,0,0,1-.68.45h-2c-.28,0-.43-.11-.43-.33a.65.65,0,0,1,.06-.23L47.7,84.82a.63.63,0,0,1,.66-.45h1.21a.62.62,0,0,1,.66.45l5.59,13.93a.53.53,0,0,1,0,.23q0,.33-.42.33h-2a.65.65,0,0,1-.67-.45l-1-2.29a.09.09,0,0,0-.09,0H46.2A.1.1,0,0,0,46.11,96.58Zm2.83-7.12-1.71,4.31a.08.08,0,0,0,0,0s0,.06.08.06h3.33q.09,0,.09-.06a.1.1,0,0,0,0,0L49,89.46s0,0,0,0S48.94,89.44,48.94,89.46Z" transform="translate(-18.03 -31.61)"/><path class="cls-2" d="M64.6,87.35v11.4a.48.48,0,0,1-.56.56H62.31a.48.48,0,0,1-.56-.56V87.35c0-.09,0-.13-.13-.13H59c-.39,0-.58-.18-.57-.56V84.93c0-.38.18-.57.57-.56h8.37c.39,0,.58.18.57.56v1.73c0,.38-.18.57-.57.56H64.73C64.64,87.22,64.6,87.26,64.6,87.35Z" transform="translate(-18.03 -31.61)"/><path class="cls-2" d="M74.49,96.58l-.93,2.28a.64.64,0,0,1-.67.45h-2q-.42,0-.42-.33a.6.6,0,0,1,0-.23l5.56-13.93a.62.62,0,0,1,.66-.45H78a.64.64,0,0,1,.67.45l5.59,13.93a.74.74,0,0,1,.05.23c0,.22-.15.33-.43.33h-2a.65.65,0,0,1-.67-.45l-1-2.29a.09.09,0,0,0-.09,0H74.58A.1.1,0,0,0,74.49,96.58Zm2.83-7.12-1.71,4.31a.08.08,0,0,0,0,0s0,.06.08.06H79s.08,0,.08-.06a.1.1,0,0,0,0,0l-1.7-4.31s0,0,0,0S77.33,89.44,77.32,89.46Z" transform="translate(-18.03 -31.61)"/><path class="cls-2" d="M98.32,96l1.08,1.38a.67.67,0,0,1,.16.37.45.45,0,0,1-.19.38A7,7,0,0,1,95,99.46a7.6,7.6,0,0,1-7.68-7.62A7.63,7.63,0,0,1,95,84.21a7,7,0,0,1,4.28,1.3.51.51,0,0,1,.25.43.67.67,0,0,1-.16.36l-1.07,1.37a.55.55,0,0,1-.42.26,1.06,1.06,0,0,1-.46-.19A4.52,4.52,0,0,0,95,87.05a4.88,4.88,0,0,0-2.54.74,4.75,4.75,0,0,0-2.27,4A4.49,4.49,0,0,0,92,95.5a4.85,4.85,0,0,0,3,1.13,4.42,4.42,0,0,0,2.38-.69,1.06,1.06,0,0,1,.46-.19A.55.55,0,0,1,98.32,96Z" transform="translate(-18.03 -31.61)"/><path class="cls-2" d="M111.64,93.23H107c-.09,0-.13,0-.13.13v3c0,.09,0,.13.13.13h4.67c.39,0,.57.17.56.56v1.73a.48.48,0,0,1-.56.56h-7.08c-.39,0-.58-.18-.57-.56V84.93c0-.38.18-.57.57-.56h7.08a.48.48,0,0,1,.56.56v1.73a.48.48,0,0,1-.56.56H107c-.09,0-.13,0-.13.13v2.91c0,.08,0,.12.13.12h4.67c.39,0,.57.18.56.58v1.71C112.21,93.06,112,93.24,111.64,93.23Z" transform="translate(-18.03 -31.61)"/><path class="cls-2" d="M119.72,89.85v8.9c0,.38-.18.57-.57.56h-1.72c-.39,0-.58-.18-.56-.56V85c0-.37.17-.57.56-.58h1.63a.81.81,0,0,1,.76.43l6.09,9V85a.5.5,0,0,1,.58-.56h1.7c.39,0,.58.18.57.56v13.8c0,.38-.18.57-.57.56h-1.57a.87.87,0,0,1-.8-.42Z" transform="translate(-18.03 -31.61)"/><path class="cls-2" d="M139.47,87.35v11.4c0,.38-.18.57-.57.56h-1.72c-.39,0-.58-.18-.56-.56V87.35a.12.12,0,0,0-.13-.13h-2.62a.48.48,0,0,1-.56-.56V84.93a.48.48,0,0,1,.56-.56h8.38c.39,0,.58.18.56.56v1.73c0,.38-.17.57-.56.56h-2.66C139.51,87.22,139.47,87.26,139.47,87.35Z" transform="translate(-18.03 -31.61)"/><path class="cls-2" d="M155,93.23h-4.67c-.09,0-.13,0-.13.13v3c0,.09,0,.13.13.13H155a.48.48,0,0,1,.56.56v1.73a.48.48,0,0,1-.56.56H148c-.39,0-.58-.18-.57-.56V84.93c0-.38.18-.57.57-.56H155a.48.48,0,0,1,.56.56v1.73a.48.48,0,0,1-.56.56h-4.67c-.09,0-.13,0-.13.13v2.91c0,.08,0,.12.13.12H155c.38,0,.57.18.56.58v1.71A.48.48,0,0,1,155,93.23Z" transform="translate(-18.03 -31.61)"/><path class="cls-2" d="M167,98.87l-2.85-5.3a.21.21,0,0,0-.19-.11h-.75a.11.11,0,0,0-.12.12v5.17c0,.38-.18.57-.57.56h-1.72c-.39,0-.58-.18-.56-.56V84.93c0-.38.17-.57.56-.56H165a4.28,4.28,0,0,1,3.16,1.25,4.66,4.66,0,0,1,1.35,3.46,4.26,4.26,0,0,1-1.34,3.2,3.92,3.92,0,0,1-.94.67c-.06,0-.1.06-.1.09a.09.09,0,0,0,0,0l3.13,5.69a.46.46,0,0,1,.07.23c0,.2-.12.3-.38.3h-2.16A.73.73,0,0,1,167,98.87ZM165,87.22h-1.7c-.08,0-.12,0-.12.13v3.43c0,.08,0,.13.12.13H165a1.52,1.52,0,0,0,1.32-.66,2,2,0,0,0,.36-1.19,1.87,1.87,0,0,0-.53-1.38A1.54,1.54,0,0,0,165,87.22Z" transform="translate(-18.03 -31.61)"/></svg>